<svg id="svg7" xmlns="http://www.w3.org/2000/svg" viewBox="0 0 1024 1024"><defs><style>.cls-1{fill:#8c3123;}.cls-2{fill:#e05243;}.cls-3{fill:#fff;stroke:#fff;stroke-miterlimit:10;stroke-width:17px;}</style></defs><title>Artboard 1</title><g id="g4496"><path id="path4490" class="cls-1" d="M408.87,248.49C228,237.33,72.3,198.62,36.3,155.83,21.49,138.24,21.86,125,37.63,107,89,48.55,314.71,8,554.23,14.09,763.58,19.46,922,51.55,976.81,99.7c22.18,19.47,26.49,31.73,16.88,48-27.77,47-175.65,86.42-372.13,99.2C557.76,251,461.81,251.76,408.87,248.49Z"/><path id="path4492" class="cls-2" d="M399.33,1006.09c-89.25-8.64-173-31.61-194.51-53.34-15.34-15.5-22.36-41.72-73.44-274C115.63,607.19,86.53,474.85,66.7,384.7S31.78,221.32,33.18,222s19.14,9.55,39.42,19.74C111,261,176.15,279.53,250.5,292.25c91.15,15.61,349.69,19.22,472.86,6.61,90.88-9.31,204.77-39.6,245.14-65.2,11.35-7.2,21.26-12.45,22-11.67,1.76,1.76-127.62,592.08-143.25,653.59-16.52,65-25.67,82.35-48.91,92.64-75.66,33.47-261.92,51.15-399,37.87Zm.27-231.8c75.57-16,115.52-70.35,98-133.34-10.22-36.78-37.26-53.6-118-73.41-29.25-7.18-56.69-16.21-61-20.09-18.73-16.93,4-40.3,42.25-43.47,29-2.4,56.91,4.1,90.41,21.08,37.74,19.13,37.83,19.07,37.83-26.17V460l-22.78-6.78c-61.12-18.21-128.71-19.05-173.85-2.15-97.47,36.46-96.19,154.19,2,185.64,15.17,4.86,42.57,12,60.91,15.92,53.28,11.33,69,31.07,41.19,51.75-9.95,7.41-18.5,9.12-45.56,9.12-37.9,0-70.58-9.25-100.94-28.56-11-7-22.25-12.66-25.11-12.66-3.77,0-4.86,11.56-4,42l1.24,42,23,7.94c48.16,16.63,105.55,20.35,154.32,10Zm341.2-7.19c32.14-14.84,50.84-35,59.24-63.9,12.06-41.5-.37-78.08-32-94.18-9-4.59-17.24-8.88-18.3-9.54s5.54-7.36,14.66-14.88c19-15.66,32.6-42.21,32.73-63.9.14-20.62-14.37-48.32-31.29-59.76-35.56-24-115.52-29.35-182.3-12.12l-29.29,7.56v38.53c0,21.18,1.71,38.52,3.8,38.52s15.27-5.29,29.28-11.75c21.67-10,31.44-11.78,65.16-11.93,43.43-.2,58,6.33,58,26,0,19-13,28.31-45.62,32.5-16.67,2.15-33.73,4-37.91,4.05-6.49.12-7.59,4.53-7.59,30.51v30.38H649c48.94,0,65.73,9.75,65.73,38.17,0,16.4-17.88,34.48-37.78,38.21-26.1,4.9-68.24-.86-94.6-12.93-37.21-17-36.84-17.3-36.84,27.18v38.57l27.12,6.9c14.91,3.79,31,7.8,35.79,8.9s31.14,2.54,58.58,1.95c42.91-.91,53.24-3.6,73.76-13.08Z"/></g><rect class="cls-2" x="186.25" y="395.24" width="659.57" height="417.14"/><path class="cls-3" d="M336.59,472.75c94.88-97.07,251-98.93,348.05-4L657,469a10.83,10.83,0,0,0,.11,21.65h.1L711,490a10.85,10.85,0,0,0,10.71-10.93L721,425.31a10.82,10.82,0,1,0-21.64.22l.33,27.65C594.13,350,424.26,352.07,321.07,457.67a267.95,267.95,0,0,0-60.56,277.87,11,11,0,0,0,10.16,7.22,10.45,10.45,0,0,0,3.61-.66,10.93,10.93,0,0,0,6.56-13.88C248.81,638.69,270.13,540.74,336.59,472.75Z"/><path class="cls-3" d="M325.55,836.55a266.16,266.16,0,0,0,187,76.19h3.17c71.6-.88,138.5-29.41,188.46-80.68a268.2,268.2,0,0,0,60.56-278,10.86,10.86,0,1,0-20.44,7.32c32.14,89.53,10.82,187.48-55.64,255.47a246.12,246.12,0,0,1-348.06,4l27.66-.32a10.83,10.83,0,0,0-.11-21.65h-.11l-53.78.66a10.84,10.84,0,0,0-7.65,3.28,11.12,11.12,0,0,0-3.07,7.65l.66,53.78A10.9,10.9,0,0,0,315.05,875h.11a10.85,10.85,0,0,0,10.72-10.94Z"/></svg>